<svg xmlns="http://www.w3.org/2000/svg" width="500" height="500" viewBox="0 0 500 500">
  <path fill="#3F474F" d="M36.0524158,77.4656248 C-9.87782003,124.3702 46.9254971,240.209547 153.356548,346.646852 C259.795725,453.067904 375.628984,509.878348 422.558763,463.94892 C422.623774,463.859532 422.713164,463.810775 422.794428,463.753891 L474.429374,412.119853 C481.856875,404.668104 481.856875,392.616911 474.429374,385.189541 L403.72184,314.475124 C396.286213,307.039628 384.234808,307.039628 376.782928,314.483251 L336.370497,354.903097 C336.370497,354.903097 270.181224,324.267226 222.958895,277.053855 C175.736567,229.824231 145.108283,163.636122 145.108283,163.636122 L185.520715,123.224402 C192.964469,115.780779 192.972595,103.737713 185.528841,96.2940898 L114.805055,25.5715473 C107.369427,18.1360507 95.3180225,18.1441769 87.8742688,25.5877997 L36.2474486,77.2137118 C36.1743113,77.2868478 36.1418058,77.3924887 36.0524158,77.4656248 Z"/>
</svg>
